#!OML:ASF F:\VICON\USERDATA\INSTALL\rory3\rory3.ASF
:FULLY-SPECIFIED
:DEGREES
19
root 0.49386204701595754 17.52100103864551 -14.275789734726093 6.588165419354432 -0.5597625916281918 -1.9649172821001732
lfemur -13.793605420075323 8.0466442585561 -17.368305130741103
ltibia 19.683605253704823
lfoot -10.50249926732007 4.993352011986064
ltoes -12.852696546727588
rfemur -13.79660534366203 -2.4260549686363797 19.090410642950452
rtibia 21.121605432445364
rfoot -13.053100387337734 -2.003622057837439
rtoes 4.951923425478261
lowerback -1.929295876949423 -0.707072515323928 0.5901287943892297
upperback 5.055859901204478 -1.0689208313894467 1.6385693663863716
thorax 6.351700772829654 -0.5464141930900464 1.2952577259320468
lowerneck -11.015504866137006 0.514119011829125 -2.2740470738402943
upperneck 36.58628562440697 1.0233797669625841 0.8657416457752872
head 14.376984447382792 0.23147964927364456 0.9114045963213716
lclavicle -1.6527450697261852e-15 3.649572765603898e-16
lhumerus -16.078908698176015 1.0901263977368827 88.13889629270983
lradius 17.877406498554457
lwrist -1.5128329630186093
lhand -23.618700967500917 -3.494726395816091
lfingers 7.125019999999999
lthumb 2.8456290316499158 26.465993544392074
rclavicle -1.6527450697261852e-15 3.649572765603898e-16
rhumerus -18.289610439864358 -17.349294323537833 -82.5877914157982
rradius 25.79780301329795
rwrist 32.23260696244993
rhand -18.30209351691629 -26.91379708186726
rfingers 7.125019999999999
rthumb 7.978746483620424 -56.743196812775366
20
root 0.49626689287670805 17.518901053401432 -14.28038973098022 6.561905461589738 -0.552667651581333 -2.005976633345203
lfemur -13.838505389499197 8.00910446073275 -17.330005357010368
ltibia 19.796105188166457
lfoot -10.538499231277916 4.975682044956435
ltoes -12.767296659691748
rfemur -13.79320534601014 -2.4396549135071366 19.128310394208015
rtibia 21.13510542488696
rfoot -13.044700395402407 -1.9994620655140587
rtoes 4.88315351058799
lowerback -1.8651759703801316 -0.6941076815813255 0.5795158911079338
upperback 5.033569990985107 -1.0496410227041526 1.641349313016108
thorax 6.29090090533616 -0.5374413593263159 1.3062075717827102
lowerneck -10.997704919352248 0.5114000597733718 -2.3065862718570247
upperneck 36.410885820055896 1.0332496700491425 0.850628784739033
head 14.290784738168279 0.2315866460935433 0.9104826316662236
lclavicle -1.652745085027215e-15 3.649572943471645e-16
lhumerus -15.99550878415643 0.6894577841472933 88.23479608731712
lradius 18.026206270338108
lwrist -1.2260032114279165
lhand -23.65180077835314 -3.707065558176835
lfingers 7.125019999999999
lthumb 2.8136192210737128 26.25409438572788
rclavicle -1.652745085027215e-15 3.649572943471645e-16
rhumerus -18.26141048874252 -17.106294619085997 -82.64489125506873
rradius 25.900002870519767
rwrist 32.08270730521151
rhand -18.271893703966406 -26.91069710935928
rfingers 7.125019999999999
rthumb 8.007916296349787 -56.7389968483717
21
root 0.5663721299281682 17.425717806181666 -8.960683461692245 9.151653822597927 -1.0222629517662556 -2.080269101411112
lfemur -19.144611831564244 9.310883136317381 -18.621938814304826
ltibia 24.032467259767902
lfoot -12.238295125340734 4.137926427333823
ltoes -7.961924777917351
rfemur -19.058048554482944 -2.365671064510939 20.237936431702746
rtibia 25.233776565576676
rfoot -14.969925615102238 -2.0613859463443323
rtoes 6.702487256831332
lowerback -1.182474279312907 -0.35856978606659407 0.5763606829686634
upperback 4.047205731582107 -0.5808276340134623 1.8210354177467418
thorax 3.5161729684971137 -0.273007610708035 1.544002108737903
lowerneck -12.596526045145255 0.1312764651966538 -2.063352577095605
upperneck 26.0519765283358 0.42554253477474463 1.2022230556336124
head 10.396108580411186 0.08762859633037534 0.8761299644106415
lclavicle -1.9028520374334053e-15 3.2824410043731e-17
lhumerus -17.56555078305155 -3.0368626924268463 89.15195927865037
lradius 19.106211377315958
lwrist 2.6013900722121344
lhand -23.99874854669642 -4.375547087965793
lfingers 7.125019999999999
lthumb 2.478487970140889 25.576177397356144
rclavicle -1.9028520374334053e-15 3.282441004373105e-17
rhumerus -19.413385286972016 -13.63586212019477 -81.54430613651252
rradius 25.736247354669707
rwrist 34.355388021016914
rhand -17.805064074308227 -26.67553429039792
rfingers 7.125019999999999
rthumb 8.458466449272757 -56.500770285974724
22
root 0.5901241032093811 17.269292288038724 -9.413906087821067 9.808840853411345 -1.0422434228748618 -2.130099364121666
lfemur -21.447135825607223 9.66410792809784 -18.91635496334988
ltibia 26.328908711257053
lfoot -13.005532264398664 4.117831173744115
ltoes -8.315421848501158
rfemur -21.37800978928675 -2.5207115327807204 20.394384724758165
rtibia 27.66970842722883
rfoot -15.742750543535353 -2.538713819871937
rtoes 6.0887486435532
lowerback -0.1856517914943031 -0.12872995332180145 0.567739477740795
upperback 4.302314011720522 -0.26605173884685723 1.793230379836625
thorax 2.9438847333030846 -0.11871369348299773 1.5143134800986906
lowerneck -12.856349082839237 0.05508133411157244 -2.055745042602504
upperneck 24.88062257672545 0.3090708241236108 1.148771159231863
head 10.018344315797702 0.04803615245835407 0.84954443320211
lclavicle -1.9634720034803328e-15 -4.7895446782030603e-17
lhumerus -19.536103146600382 -3.7308758085330513 89.17878247205495
lradius 18.941133703385464
lwrist 2.641225130639507
lhand -24.12351634901083 -4.403674993588885
lfingers 7.125019999999999
lthumb 2.3580268312134476 25.55600608479217
rclavicle -1.9634720034803328e-15 -4.7895446782030603e-17
rhumerus -20.14219826308571 -13.91395568469507 -81.14750412537066
rradius 25.594847744160877
rwrist 34.52794065644819
rhand -17.694421921417398 -26.56193942321421
rfingers 7.125019999999999
rthumb 8.56518724453506 -56.37579749464003
23
root 0.6143297144024522 17.18191050183759 -9.595625861631238 10.353826311054206 -1.0931152509354831 -2.123385706572723
lfemur -23.100146392936725 9.873269135332057 -19.126992898896525
ltibia 28.53650311432276
lfoot -13.239705150858223 4.215723843565388
ltoes -8.737880261040202
rfemur -22.96091798544656 -2.5206599478354197 20.43240135109866
rtibia 29.938205869621715
rfoot -15.922968814206095 -2.6570564319594467
rtoes 5.446290415441128
lowerback 0.713630046037308 0.03346465139403792 0.5416204452269271
upperback 4.662329504384674 -0.04679939754101757 1.7612398897145547
thorax 2.787341825478597 -0.014554452758775642 1.495250925250656
lowerneck -12.881230659797623 0.046483516117694676 -2.029666850273557
upperneck 23.893539074194308 0.30208285170553795 1.074834265801763
head 9.663311713303854 0.0462111217466823 0.8209407878819421
lclavicle -1.862443710648423e-15 8.644786737956756e-17
lhumerus -21.21256142575574 -3.9931640779948845 89.11652112946501
lradius 18.779002755671122
lwrist 3.084519825276907
lhand -24.05542347159061 -4.278899525933775
lfingers 7.125019999999999
lthumb 2.4237873758415134 25.680847163077452
rclavicle -1.862443710648423e-15 8.644786737956751e-17
rhumerus -20.82219558832831 -13.83995184233811 -80.71103612532306
rradius 25.442488443995956
rwrist 34.76114029780386
rhand -17.542537447328165 -26.486103031542502
rfingers 7.125019999999999
rthumb 8.711699484633519 -56.291070490257994
24
root 0.638625948517608 17.055112524196588 -10.091143670599077 10.74293388799585 -1.16024376422758 -2.108467531485307
lfemur -25.03541693829927 10.022657827710034 -19.40493702700754
ltibia 30.74248765505849
lfoot -13.834112260831851 4.3722250974964485
ltoes -9.407987634808428
rfemur -24.851685480559954 -2.556882919266182 20.411705991998364
rtibia 32.271543914764905
rfoot -16.527922283198986 -3.0207002393759703
rtoes 4.52409151359155
lowerback 1.341407645755994 0.16417607309823945 0.46922268228094755
upperback 5.000333515180475 0.11715412677361153 1.7204076105801216
thorax 2.578239261513396 0.06741286112017479 1.4826189428959362
lowerneck -13.023159564109871 0.03520256646098195 -2.0195156095993214
upperneck 22.88781504337612 0.2970028649470965 0.9959931665463851
head 9.32251431647827 0.04408248229230274 0.7974723216943526
lclavicle -1.9072802964257967e-15 2.6928871122147668e-17
lhumerus -22.39026062038285 -4.347604344908078 88.90614011049638
lradius 18.808280392815295
lwrist 3.57228878405353
lhand -24.00005715366884 -4.185498081765847
lfingers 7.125019999999999
lthumb 2.4772444892255705 25.77225751881133
rclavicle -1.9072802964257967e-15 2.6928871122147668e-17
rhumerus -21.356718227628157 -13.889662826669369 -80.40935346329336
rradius 25.391854828096115
rwrist 34.73760474230996
rhand -17.46572056772544 -26.43508961407132
rfingers 7.125019999999999
rthumb 8.785791983922573 -56.23402308488734
25
root 0.6570097582640192 16.95241000013533 -10.502981601163853 11.245676070961794 -1.1593912125666734 -2.1086997917107975
lfemur -26.802365086717845 10.028727620339087 -19.640962683738906
ltibia 32.68279619148673
lfoot -14.286899180462864 4.6302160425991925
ltoes -10.151417172676162
rfemur -26.513403293196184 -2.609684893814173 20.456016047714982
rtibia 34.19848444853228
rfoot -16.96201552904057 -3.347922714981703
rtoes 3.6702827859424065
lowerback 2.0964462369528585 0.27455098261757305 0.47048895066577423
upperback 5.310418682402098 0.27127849888253824 1.7023085736218415
thorax 2.35646408336859 0.14250392121763572 1.4560500496760733
lowerneck -13.179446700105457 0.030386257194598046 -2.0217282712845734
upperneck 21.665081597569742 0.302877281296457 0.9161900115790057
head 8.894255842203096 0.0456252195361718 0.7750009259690996
lclavicle -1.8982316878611297e-15 3.903137222058129e-17
lhumerus -23.63008466266947 -4.575106588201207 88.68646045808782
lradius 18.689355083343056
lwrist 3.9526970988444825
lhand -23.95551032171941 -4.117541695022784
lfingers 7.125019999999999
lthumb 2.520281791671045 25.840988882931562
rclavicle -1.8982316878611297e-15 3.903137222058129e-17
rhumerus -21.9625562335564 -13.535082977361823 -80.08083675445857
rradius 25.279895905400426
rwrist 34.71752746128747
rhand -17.34868977055772 -26.374858258869196
rfingers 7.125019999999999
rthumb 8.898696778154601 -56.167701663441775
26
root 0.6714624361515157 16.799294945634696 -10.986789422569935 11.769397069137904 -1.1612834710308428 -2.097209473438646
lfemur -28.864118791947714 10.02816470106895 -19.916852083324027
ltibia 34.91631463509621
lfoot -15.080090948100036 4.987387291794241
ltoes -11.0810180297301
rfemur -28.51298194226335 -2.6175450293045137 20.44360622331208
rtibia 36.514300159260635
rfoot -17.83247195109763 -3.6637462281954107
rtoes 2.748798365773828
lowerback 2.729868970335344 0.3824469816325018 0.42799035999739976
upperback 5.672817995528092 0.40635549090461337 1.6607973458218026
thorax 2.1897335052229665 0.211074353674855 1.4325305478899075
lowerneck -13.353005273191819 0.0020367774587788656 -2.01594957303137
upperneck 20.534020975631037 0.26586616110667555 0.8394728173452598
head 8.524256216007199 0.03457634657163571 0.7521801756100065
lclavicle -1.9460470074074468e-15 -2.4607517363151736e-17
lhumerus -24.89975339416251 -4.5866319764439 88.40432778568884
lradius 18.533255772769742
lwrist 4.536664011503537
lhand -23.90963296650268 -4.04459881733214
lfingers 7.125019999999999
lthumb 2.5645632055159506 25.91010895522903
rclavicle -1.9460470074074468e-15 -2.4607517363151736e-17
rhumerus -22.74099593558228 -13.781290621982881 -79.61108001281431
rradius 25.093618952214104
rwrist 34.702707419666226
rhand -17.21938031914854 -26.312281367042907
rfingers 7.125019999999999
rthumb 9.0234204447151 -56.09657377317985
